{
    "asset" : {
        "copyright" : "CultureConnection",
        "generator" : "Khronos glTF Blender I/O v1.8.19",
        "version" : "2.0"
    },
    "scene" : 0,
    "scenes" : [
        {
            "name" : "Scene",
            "nodes" : [
                0
            ]
        }
    ],
    "nodes" : [
        {
            "mesh" : 0,
            "name" : "Crown"
        }
    ],
    "materials" : [
        {
            "doubleSided" : true,
            "name" : "\ub9e4\ud14c\ub9ac\uc5bc.002",
            "pbrMetallicRoughness" : {
                "baseColorTexture" : {
                    "index" : 0
                },
                "metallicRoughnessTexture" : {
                    "index" : 1
                },
                "roughnessFactor" : 0.5
            }
        },
        {
            "doubleSided" : true,
            "name" : "\ub9e4\ud14c\ub9ac\uc5bc.001",
            "pbrMetallicRoughness" : {
                "baseColorFactor" : [
                    1,
                    1,
                    1,
                    0.5866666436195374
                ],
                "baseColorTexture" : {
                    "index" : 2
                },
                "metallicFactor" : 0,
                "roughnessFactor" : 0
            }
        }
    ],
    "meshes" : [
        {
            "name" : "\uc6d0\ud615.005",
            "primitives" : [
                {
                    "attributes" : {
                        "POSITION" : 0,
                        "NORMAL" : 1,
                        "TEXCOORD_0" : 2,
                        "TEXCOORD_1" : 3
                    },
                    "indices" : 4,
                    "material" : 0
                },
                {
                    "attributes" : {
                        "POSITION" : 5,
                        "NORMAL" : 6,
                        "TEXCOORD_0" : 7,
                        "TEXCOORD_1" : 8
                    },
                    "indices" : 9,
                    "material" : 1
                }
            ]
        }
    ],
    "textures" : [
        {
            "sampler" : 0,
            "source" : 0
        },
        {
            "sampler" : 0,
            "source" : 1
        },
        {
            "sampler" : 0,
            "source" : 2
        }
    ],
    "images" : [
        {
            "bufferView" : 5,
            "mimeType" : "image/png",
            "name" : "DefaultMaterial_Base_color"
        },
        {
            "bufferView" : 6,
            "mimeType" : "image/png",
            "name" : "DefaultMaterial_Metallic"
        },
        {
            "bufferView" : 12,
            "mimeType" : "image/png",
            "name" : "Base"
        }
    ],
    "accessors" : [
        {
            "bufferView" : 0,
            "componentType" : 5126,
            "count" : 6974,
            "max" : [
                0.9966840744018555,
                0.5600540637969971,
                0.7145693898200989
            ],
            "min" : [
                -0.9966840744018555,
                -0.03821262717247009,
                -0.5722452998161316
            ],
            "type" : "VEC3"
        },
        {
            "bufferView" : 1,
            "componentType" : 5126,
            "count" : 6974,
            "type" : "VEC3"
        },
        {
            "bufferView" : 2,
            "componentType" : 5126,
            "count" : 6974,
            "type" : "VEC2"
        },
        {
            "bufferView" : 3,
            "componentType" : 5126,
            "count" : 6974,
            "type" : "VEC2"
        },
        {
            "bufferView" : 4,
            "componentType" : 5123,
            "count" : 35784,
            "type" : "SCALAR"
        },
        {
            "bufferView" : 7,
            "componentType" : 5126,
            "count" : 4860,
            "max" : [
                0.9822133779525757,
                0.4167253375053406,
                0.7183570265769958
            ],
            "min" : [
                -0.9822133779525757,
                -0.007903619669377804,
                -0.1786615401506424
            ],
            "type" : "VEC3"
        },
        {
            "bufferView" : 8,
            "componentType" : 5126,
            "count" : 4860,
            "type" : "VEC3"
        },
        {
            "bufferView" : 9,
            "componentType" : 5126,
            "count" : 4860,
            "type" : "VEC2"
        },
        {
            "bufferView" : 10,
            "componentType" : 5126,
            "count" : 4860,
            "type" : "VEC2"
        },
        {
            "bufferView" : 11,
            "componentType" : 5123,
            "count" : 7968,
            "type" : "SCALAR"
        }
    ],
    "bufferViews" : [
        {
            "buffer" : 0,
            "byteLength" : 83688,
            "byteOffset" : 0
        },
        {
            "buffer" : 0,
            "byteLength" : 83688,
            "byteOffset" : 83688
        },
        {
            "buffer" : 0,
            "byteLength" : 55792,
            "byteOffset" : 167376
        },
        {
            "buffer" : 0,
            "byteLength" : 55792,
            "byteOffset" : 223168
        },
        {
            "buffer" : 0,
            "byteLength" : 71568,
            "byteOffset" : 278960
        },
        {
            "buffer" : 0,
            "byteLength" : 1901,
            "byteOffset" : 350528
        },
        {
            "buffer" : 0,
            "byteLength" : 4427,
            "byteOffset" : 352432
        },
        {
            "buffer" : 0,
            "byteLength" : 58320,
            "byteOffset" : 356860
        },
        {
            "buffer" : 0,
            "byteLength" : 58320,
            "byteOffset" : 415180
        },
        {
            "buffer" : 0,
            "byteLength" : 38880,
            "byteOffset" : 473500
        },
        {
            "buffer" : 0,
            "byteLength" : 38880,
            "byteOffset" : 512380
        },
        {
            "buffer" : 0,
            "byteLength" : 15936,
            "byteOffset" : 551260
        },
        {
            "buffer" : 0,
            "byteLength" : 240272,
            "byteOffset" : 567196
        }
    ],
    "samplers" : [
        {
            "magFilter" : 9729,
            "minFilter" : 9987
        }
    ],
    "buffers" : [
        {
            "byteLength" : 807468,
            "uri" : "data:application/octet-stream;base64,"
        }
    ]
}
