{
    "asset" : {
        "copyright" : "CultureConnection",
        "generator" : "Khronos glTF Blender I/O v1.8.19",
        "version" : "2.0"
    },
    "scene" : 0,
    "scenes" : [
        {
            "name" : "Scene",
            "nodes" : [
                0
            ]
        }
    ],
    "nodes" : [
        {
            "mesh" : 0,
            "name" : "Earring"
        }
    ],
    "materials" : [
        {
            "doubleSided" : true,
            "name" : "\ub9e4\ud14c\ub9ac\uc5bc.002",
            "pbrMetallicRoughness" : {
                "baseColorTexture" : {
                    "index" : 0
                },
                "metallicRoughnessTexture" : {
                    "index" : 1
                },
                "roughnessFactor" : 0.5
            }
        },
        {
            "doubleSided" : true,
            "name" : "\ub9e4\ud14c\ub9ac\uc5bc.001",
            "pbrMetallicRoughness" : {
                "baseColorFactor" : [
                    1,
                    1,
                    1,
                    0.5866666436195374
                ],
                "baseColorTexture" : {
                    "index" : 2
                },
                "metallicFactor" : 0,
                "roughnessFactor" : 0
            }
        }
    ],
    "meshes" : [
        {
            "name" : "\ubca0\uc9c0\uc5b4\ucee4\ube0c.002",
            "primitives" : [
                {
                    "attributes" : {
                        "POSITION" : 0,
                        "NORMAL" : 1,
                        "TEXCOORD_0" : 2,
                        "TEXCOORD_1" : 3
                    },
                    "indices" : 4,
                    "material" : 0
                },
                {
                    "attributes" : {
                        "POSITION" : 5,
                        "NORMAL" : 6,
                        "TEXCOORD_0" : 7,
                        "TEXCOORD_1" : 8
                    },
                    "indices" : 9,
                    "material" : 1
                }
            ]
        }
    ],
    "textures" : [
        {
            "sampler" : 0,
            "source" : 0
        },
        {
            "sampler" : 0,
            "source" : 1
        },
        {
            "sampler" : 0,
            "source" : 2
        }
    ],
    "images" : [
        {
            "bufferView" : 5,
            "mimeType" : "image/png",
            "name" : "DefaultMaterial_Base_color"
        },
        {
            "bufferView" : 6,
            "mimeType" : "image/png",
            "name" : "DefaultMaterial_Metallic"
        },
        {
            "bufferView" : 12,
            "mimeType" : "image/png",
            "name" : "Base"
        }
    ],
    "accessors" : [
        {
            "bufferView" : 0,
            "componentType" : 5126,
            "count" : 2921,
            "max" : [
                0.061067502945661545,
                0.09052965044975281,
                0.009042441844940186
            ],
            "min" : [
                -0.06106550246477127,
                -0.16031983494758606,
                -0.0953683853149414
            ],
            "type" : "VEC3"
        },
        {
            "bufferView" : 1,
            "componentType" : 5126,
            "count" : 2921,
            "type" : "VEC3"
        },
        {
            "bufferView" : 2,
            "componentType" : 5126,
            "count" : 2921,
            "type" : "VEC2"
        },
        {
            "bufferView" : 3,
            "componentType" : 5126,
            "count" : 2921,
            "type" : "VEC2"
        },
        {
            "bufferView" : 4,
            "componentType" : 5123,
            "count" : 15249,
            "type" : "SCALAR"
        },
        {
            "bufferView" : 7,
            "componentType" : 5126,
            "count" : 324,
            "max" : [
                0.059605494141578674,
                0.08195331692695618,
                0.010543882846832275
            ],
            "min" : [
                -0.0596034973859787,
                -0.15833593904972076,
                -0.012037158012390137
            ],
            "type" : "VEC3"
        },
        {
            "bufferView" : 8,
            "componentType" : 5126,
            "count" : 324,
            "type" : "VEC3"
        },
        {
            "bufferView" : 9,
            "componentType" : 5126,
            "count" : 324,
            "type" : "VEC2"
        },
        {
            "bufferView" : 10,
            "componentType" : 5126,
            "count" : 324,
            "type" : "VEC2"
        },
        {
            "bufferView" : 11,
            "componentType" : 5123,
            "count" : 738,
            "type" : "SCALAR"
        }
    ],
    "bufferViews" : [
        {
            "buffer" : 0,
            "byteLength" : 35052,
            "byteOffset" : 0
        },
        {
            "buffer" : 0,
            "byteLength" : 35052,
            "byteOffset" : 35052
        },
        {
            "buffer" : 0,
            "byteLength" : 23368,
            "byteOffset" : 70104
        },
        {
            "buffer" : 0,
            "byteLength" : 23368,
            "byteOffset" : 93472
        },
        {
            "buffer" : 0,
            "byteLength" : 30498,
            "byteOffset" : 116840
        },
        {
            "buffer" : 0,
            "byteLength" : 1901,
            "byteOffset" : 147340
        },
        {
            "buffer" : 0,
            "byteLength" : 4427,
            "byteOffset" : 149244
        },
        {
            "buffer" : 0,
            "byteLength" : 3888,
            "byteOffset" : 153672
        },
        {
            "buffer" : 0,
            "byteLength" : 3888,
            "byteOffset" : 157560
        },
        {
            "buffer" : 0,
            "byteLength" : 2592,
            "byteOffset" : 161448
        },
        {
            "buffer" : 0,
            "byteLength" : 2592,
            "byteOffset" : 164040
        },
        {
            "buffer" : 0,
            "byteLength" : 1476,
            "byteOffset" : 166632
        },
        {
            "buffer" : 0,
            "byteLength" : 240272,
            "byteOffset" : 168108
        }
    ],
    "samplers" : [
        {
            "magFilter" : 9729,
            "minFilter" : 9987
        }
    ],
    "buffers" : [
        {
            "byteLength" : 408380,
            "uri" : "data:application/octet-stream;base64,"
        }
    ]
}
