{
	"asset":{
		"generator":"Khronos glTF Blender I/O v3.6.27",
		"version":"2.0"
	},
	"scene":0,
	"scenes":[
		{
			"name":"Scene",
			"nodes":[
				0
			]
		}
	],
	"nodes":[
		{
			"mesh":0,
			"name":"Headset(1)"
		}
	],
	"materials":[
		{
			"doubleSided":true,
			"name":"\ub9e4\ud14c\ub9ac\uc5bc",
			"pbrMetallicRoughness":{
				"baseColorFactor":[
					0,
					0,
					0,
					1
				],
				"metallicFactor":0,
				"roughnessFactor":0.5
			}
		},
		{
			"doubleSided":true,
			"name":"\ub9e4\ud14c\ub9ac\uc5bc.001",
			"pbrMetallicRoughness":{
				"baseColorFactor":[
					0.0010313482489436865,
					0.0009898178977891803,
					0.0009898178977891803,
					1
				],
				"metallicFactor":0
			}
		}
	],
	"meshes":[
		{
			"name":"defaultMaterial.006",
			"primitives":[
				{
					"attributes":{
						"POSITION":0,
						"NORMAL":1,
						"TEXCOORD_0":2
					},
					"indices":3,
					"material":0
				},
				{
					"attributes":{
						"POSITION":4,
						"NORMAL":5,
						"TEXCOORD_0":6
					},
					"indices":7,
					"material":1
				}
			]
		}
	],
	"accessors":[
		{
			"bufferView":0,
			"componentType":5126,
			"count":7106,
			"max":[
				0.9746578335762024,
				0.9851273894309998,
				0.37641823291778564
			],
			"min":[
				-0.9746578335762024,
				-0.687487781047821,
				-0.2912026643753052
			],
			"type":"VEC3"
		},
		{
			"bufferView":1,
			"componentType":5126,
			"count":7106,
			"type":"VEC3"
		},
		{
			"bufferView":2,
			"componentType":5126,
			"count":7106,
			"type":"VEC2"
		},
		{
			"bufferView":3,
			"componentType":5123,
			"count":30474,
			"type":"SCALAR"
		},
		{
			"bufferView":4,
			"componentType":5126,
			"count":1696,
			"max":[
				0.7641494274139404,
				0.14560778439044952,
				0.364410936832428
			],
			"min":[
				-0.7641494274139404,
				-0.7187839150428772,
				-0.31432345509529114
			],
			"type":"VEC3"
		},
		{
			"bufferView":5,
			"componentType":5126,
			"count":1696,
			"type":"VEC3"
		},
		{
			"bufferView":6,
			"componentType":5126,
			"count":1696,
			"type":"VEC2"
		},
		{
			"bufferView":7,
			"componentType":5123,
			"count":8184,
			"type":"SCALAR"
		}
	],
	"bufferViews":[
		{
			"buffer":0,
			"byteLength":85272,
			"byteOffset":0,
			"target":34962
		},
		{
			"buffer":0,
			"byteLength":85272,
			"byteOffset":85272,
			"target":34962
		},
		{
			"buffer":0,
			"byteLength":56848,
			"byteOffset":170544,
			"target":34962
		},
		{
			"buffer":0,
			"byteLength":60948,
			"byteOffset":227392,
			"target":34963
		},
		{
			"buffer":0,
			"byteLength":20352,
			"byteOffset":288340,
			"target":34962
		},
		{
			"buffer":0,
			"byteLength":20352,
			"byteOffset":308692,
			"target":34962
		},
		{
			"buffer":0,
			"byteLength":13568,
			"byteOffset":329044,
			"target":34962
		},
		{
			"buffer":0,
			"byteLength":16368,
			"byteOffset":342612,
			"target":34963
		}
	],
	"buffers":[
		{
			"byteLength":358980,
			"uri":"data:application/octet-stream;base64,"
		}
	]
}
