{
	"asset":{
		"copyright":"Toxic",
		"generator":"Khronos glTF Blender I/O v3.6.27",
		"version":"2.0"
	},
	"scene":0,
	"scenes":[
		{
			"name":"Scene",
			"nodes":[
				0
			]
		}
	],
	"nodes":[
		{
			"mesh":0,
			"name":"Headset(2)"
		}
	],
	"materials":[
		{
			"doubleSided":true,
			"emissiveFactor":[
				1,
				1,
				1
			],
			"emissiveTexture":{
				"index":0
			},
			"name":"aiStandardSurface18SG.001",
			"pbrMetallicRoughness":{
				"baseColorTexture":{
					"index":1
				},
				"metallicRoughnessTexture":{
					"index":2
				}
			}
		}
	],
	"meshes":[
		{
			"name":"Object_0.001",
			"primitives":[
				{
					"attributes":{
						"POSITION":0,
						"NORMAL":1,
						"TEXCOORD_0":2
					},
					"indices":3,
					"material":0
				}
			]
		}
	],
	"textures":[
		{
			"sampler":0,
			"source":0
		},
		{
			"sampler":0,
			"source":1
		},
		{
			"sampler":0,
			"source":2
		}
	],
	"images":[
		{
			"bufferView":4,
			"mimeType":"image/png",
			"name":"aiStandardSurface18SG_emissive"
		},
		{
			"bufferView":5,
			"mimeType":"image/png",
			"name":"aiStandardSurface18SG_baseColor"
		},
		{
			"bufferView":6,
			"mimeType":"image/png",
			"name":"aiStandardSurface18SG_metallicRoughness"
		}
	],
	"accessors":[
		{
			"bufferView":0,
			"componentType":5126,
			"count":12832,
			"max":[
				0.981153130531311,
				0.9720781445503235,
				0.3260294198989868
			],
			"min":[
				-0.9811534881591797,
				-0.6738066673278809,
				-0.3255603611469269
			],
			"type":"VEC3"
		},
		{
			"bufferView":1,
			"componentType":5126,
			"count":12832,
			"type":"VEC3"
		},
		{
			"bufferView":2,
			"componentType":5126,
			"count":12832,
			"type":"VEC2"
		},
		{
			"bufferView":3,
			"componentType":5123,
			"count":69744,
			"type":"SCALAR"
		}
	],
	"bufferViews":[
		{
			"buffer":0,
			"byteLength":153984,
			"byteOffset":0,
			"target":34962
		},
		{
			"buffer":0,
			"byteLength":153984,
			"byteOffset":153984,
			"target":34962
		},
		{
			"buffer":0,
			"byteLength":102656,
			"byteOffset":307968,
			"target":34962
		},
		{
			"buffer":0,
			"byteLength":139488,
			"byteOffset":410624,
			"target":34963
		},
		{
			"buffer":0,
			"byteLength":7068,
			"byteOffset":550112
		},
		{
			"buffer":0,
			"byteLength":48347,
			"byteOffset":557180
		},
		{
			"buffer":0,
			"byteLength":127903,
			"byteOffset":605528
		}
	],
	"samplers":[
		{
			"magFilter":9729,
			"minFilter":9987
		}
	],
	"buffers":[
		{
			"byteLength":733432,
			"uri":"data:application/octet-stream;base64,"
		}
	]
}
