{
	"asset":{
		"copyright":"Joel Joseph",
		"generator":"Khronos glTF Blender I/O v3.6.27",
		"version":"2.0"
	},
	"extensionsUsed":[
		"KHR_texture_transform"
	],
	"extensionsRequired":[
		"KHR_texture_transform"
	],
	"scene":0,
	"scenes":[
		{
			"name":"Scene",
			"nodes":[
				0
			]
		}
	],
	"nodes":[
		{
			"mesh":0,
			"name":"Headset(3)"
		}
	],
	"materials":[
		{
			"doubleSided":true,
			"name":"Material.027",
			"pbrMetallicRoughness":{
				"metallicFactor":0,
				"roughnessFactor":0.7165354490280151
			}
		},
		{
			"doubleSided":true,
			"name":"Material.033",
			"pbrMetallicRoughness":{
				"baseColorFactor":[
					0,
					0,
					0,
					1
				],
				"metallicFactor":0,
				"roughnessFactor":0.5
			}
		},
		{
			"doubleSided":true,
			"name":"Material.030",
			"pbrMetallicRoughness":{
				"baseColorTexture":{
					"extensions":{
						"KHR_texture_transform":{
							"scale":[
								3,
								3
							]
						}
					},
					"index":0
				},
				"metallicFactor":0,
				"roughnessFactor":0.7045450210571289
			}
		},
		{
			"doubleSided":true,
			"name":"Material.032",
			"pbrMetallicRoughness":{
				"baseColorFactor":[
					0.800000011920929,
					0.800000011920929,
					0.800000011920929,
					1
				],
				"metallicFactor":0.8850420117378235,
				"roughnessFactor":0.18439699709415436
			}
		}
	],
	"meshes":[
		{
			"name":"Object_10",
			"primitives":[
				{
					"attributes":{
						"POSITION":0,
						"NORMAL":1,
						"TEXCOORD_0":2,
						"TEXCOORD_1":3
					},
					"indices":4,
					"material":0
				},
				{
					"attributes":{
						"POSITION":5,
						"NORMAL":6,
						"TEXCOORD_0":7,
						"TEXCOORD_1":8
					},
					"indices":9,
					"material":1
				},
				{
					"attributes":{
						"POSITION":10,
						"NORMAL":11,
						"TEXCOORD_0":12,
						"TEXCOORD_1":13
					},
					"indices":14,
					"material":2
				},
				{
					"attributes":{
						"POSITION":15,
						"NORMAL":16,
						"TEXCOORD_0":17,
						"TEXCOORD_1":18
					},
					"indices":19,
					"material":3
				}
			]
		}
	],
	"textures":[
		{
			"sampler":0,
			"source":0
		}
	],
	"images":[
		{
			"bufferView":15,
			"mimeType":"image/jpeg",
			"name":"Material.017_baseColor"
		}
	],
	"accessors":[
		{
			"bufferView":0,
			"componentType":5126,
			"count":3386,
			"max":[
				0.9866209030151367,
				1.090139627456665,
				0.3251446485519409
			],
			"min":[
				-0.9866210222244263,
				-0.6917941570281982,
				-0.32018202543258667
			],
			"type":"VEC3"
		},
		{
			"bufferView":1,
			"componentType":5126,
			"count":3386,
			"type":"VEC3"
		},
		{
			"bufferView":2,
			"componentType":5126,
			"count":3386,
			"type":"VEC2"
		},
		{
			"bufferView":3,
			"componentType":5126,
			"count":3386,
			"type":"VEC2"
		},
		{
			"bufferView":4,
			"componentType":5123,
			"count":17844,
			"type":"SCALAR"
		},
		{
			"bufferView":5,
			"componentType":5126,
			"count":3260,
			"max":[
				0.9828485250473022,
				0.11318116635084152,
				0.33873462677001953
			],
			"min":[
				-0.9828486442565918,
				-0.7089250087738037,
				-0.3337552547454834
			],
			"type":"VEC3"
		},
		{
			"bufferView":6,
			"componentType":5126,
			"count":3260,
			"type":"VEC3"
		},
		{
			"bufferView":7,
			"componentType":5126,
			"count":3260,
			"type":"VEC2"
		},
		{
			"bufferView":8,
			"componentType":5126,
			"count":3260,
			"type":"VEC2"
		},
		{
			"bufferView":9,
			"componentType":5123,
			"count":12828,
			"type":"SCALAR"
		},
		{
			"bufferView":10,
			"componentType":5126,
			"count":64,
			"max":[
				0.7403621673583984,
				0.02870534360408783,
				0.2694528102874756
			],
			"min":[
				-0.7403621673583984,
				-0.6241762638092041,
				-0.2653185725212097
			],
			"type":"VEC3"
		},
		{
			"bufferView":11,
			"componentType":5126,
			"count":64,
			"type":"VEC3"
		},
		{
			"bufferView":12,
			"componentType":5126,
			"count":64,
			"type":"VEC2"
		},
		{
			"bufferView":13,
			"componentType":5126,
			"count":64,
			"type":"VEC2"
		},
		{
			"bufferView":14,
			"componentType":5123,
			"count":180,
			"type":"SCALAR"
		},
		{
			"bufferView":16,
			"componentType":5126,
			"count":1530,
			"max":[
				0.8286775946617126,
				0.5369777679443359,
				0.06060411036014557
			],
			"min":[
				-0.8286775946617126,
				0.21705946326255798,
				-0.05385935306549072
			],
			"type":"VEC3"
		},
		{
			"bufferView":17,
			"componentType":5126,
			"count":1530,
			"type":"VEC3"
		},
		{
			"bufferView":18,
			"componentType":5126,
			"count":1530,
			"type":"VEC2"
		},
		{
			"bufferView":19,
			"componentType":5126,
			"count":1530,
			"type":"VEC2"
		},
		{
			"bufferView":20,
			"componentType":5123,
			"count":7680,
			"type":"SCALAR"
		}
	],
	"bufferViews":[
		{
			"buffer":0,
			"byteLength":40632,
			"byteOffset":0,
			"target":34962
		},
		{
			"buffer":0,
			"byteLength":40632,
			"byteOffset":40632,
			"target":34962
		},
		{
			"buffer":0,
			"byteLength":27088,
			"byteOffset":81264,
			"target":34962
		},
		{
			"buffer":0,
			"byteLength":27088,
			"byteOffset":108352,
			"target":34962
		},
		{
			"buffer":0,
			"byteLength":35688,
			"byteOffset":135440,
			"target":34963
		},
		{
			"buffer":0,
			"byteLength":39120,
			"byteOffset":171128,
			"target":34962
		},
		{
			"buffer":0,
			"byteLength":39120,
			"byteOffset":210248,
			"target":34962
		},
		{
			"buffer":0,
			"byteLength":26080,
			"byteOffset":249368,
			"target":34962
		},
		{
			"buffer":0,
			"byteLength":26080,
			"byteOffset":275448,
			"target":34962
		},
		{
			"buffer":0,
			"byteLength":25656,
			"byteOffset":301528,
			"target":34963
		},
		{
			"buffer":0,
			"byteLength":768,
			"byteOffset":327184,
			"target":34962
		},
		{
			"buffer":0,
			"byteLength":768,
			"byteOffset":327952,
			"target":34962
		},
		{
			"buffer":0,
			"byteLength":512,
			"byteOffset":328720,
			"target":34962
		},
		{
			"buffer":0,
			"byteLength":512,
			"byteOffset":329232,
			"target":34962
		},
		{
			"buffer":0,
			"byteLength":360,
			"byteOffset":329744,
			"target":34963
		},
		{
			"buffer":0,
			"byteLength":90200,
			"byteOffset":330104
		},
		{
			"buffer":0,
			"byteLength":18360,
			"byteOffset":420304,
			"target":34962
		},
		{
			"buffer":0,
			"byteLength":18360,
			"byteOffset":438664,
			"target":34962
		},
		{
			"buffer":0,
			"byteLength":12240,
			"byteOffset":457024,
			"target":34962
		},
		{
			"buffer":0,
			"byteLength":12240,
			"byteOffset":469264,
			"target":34962
		},
		{
			"buffer":0,
			"byteLength":15360,
			"byteOffset":481504,
			"target":34963
		}
	],
	"samplers":[
		{
			"magFilter":9729,
			"minFilter":9987
		}
	],
	"buffers":[
		{
			"byteLength":496864,
			"uri":"data:application/octet-stream;base64,"
		}
	]
}
