{
    "asset" : {
        "generator" : "Khronos glTF Blender I/O v1.8.19",
        "version" : "2.0"
    },
    "scene" : 0,
    "scenes" : [
        {
            "name" : "Scene",
            "nodes" : [
                10
            ]
        }
    ],
    "nodes" : [
        {
            "name" : "Star_5",
            "rotation" : [
                1.0390076284419198e-14,
                4.572235212663145e-08,
                -0.3403003513813019,
                0.9403167963027954
            ],
            "translation" : [
                1.1920928955078125e-07,
                0.14633584022521973,
                0
            ]
        },
        {
            "children" : [
                0
            ],
            "name" : "Star_4",
            "rotation" : [
                -1.7978342068108305e-15,
                2.0705963166278707e-08,
                -0.1541094183921814,
                0.9880537986755371
            ],
            "translation" : [
                1.1920928955078125e-07,
                0.14633548259735107,
                0
            ]
        },
        {
            "children" : [
                1
            ],
            "name" : "Star_3",
            "rotation" : [
                -1.3599759830790073e-15,
                2.6983398626612143e-08,
                -0.2008308470249176,
                0.979625940322876
            ],
            "translation" : [
                5.960464477539063e-08,
                0.14633584022521973,
                0
            ]
        },
        {
            "children" : [
                2
            ],
            "name" : "Star_2",
            "rotation" : [
                2.272870771240454e-16,
                2.86908434787847e-08,
                -0.21353894472122192,
                0.976934552192688
            ],
            "translation" : [
                0,
                0.15731847286224365,
                0
            ]
        },
        {
            "children" : [
                3
            ],
            "name" : "Star_1",
            "rotation" : [
                0,
                7.109748789702053e-09,
                -0.05291612073779106,
                0.9985989928245544
            ],
            "translation" : [
                0,
                1.0763497352600098,
                -0.04942232742905617
            ]
        },
        {
            "children" : [
                4
            ],
            "name" : "Head",
            "translation" : [
                0,
                0.08814573287963867,
                0
            ]
        },
        {
            "mesh" : 0,
            "name" : "Kumdori_Body",
            "skin" : 0
        },
        {
            "mesh" : 1,
            "name" : "KumDori_Head",
            "skin" : 0
        },
        {
            "mesh" : 2,
            "name" : "KumDori_Maestro",
            "skin" : 0
        },
        {
            "mesh" : 3,
            "name" : "KumDori_Maestro_mustache",
            "skin" : 0
        },
        {
            "children" : [
                6,
                7,
                8,
                9,
                5
            ],
            "name" : "Kumdori_Maestro"
        }
    ],
    "materials" : [
        {
            "doubleSided" : true,
            "name" : "\ub9e4\ud14c\ub9ac\uc5bc",
            "pbrMetallicRoughness" : {
                "baseColorTexture" : {
                    "index" : 0
                },
                "metallicFactor" : 0
            }
        }
    ],
    "meshes" : [
        {
            "name" : "\uba54\uc26c",
            "primitives" : [
                {
                    "attributes" : {
                        "POSITION" : 0,
                        "NORMAL" : 1,
                        "TEXCOORD_0" : 2,
                        "JOINTS_0" : 3,
                        "WEIGHTS_0" : 4
                    },
                    "indices" : 5,
                    "material" : 0
                }
            ]
        },
        {
            "name" : "\uba54\uc26c.003",
            "primitives" : [
                {
                    "attributes" : {
                        "POSITION" : 7,
                        "NORMAL" : 8,
                        "TEXCOORD_0" : 9,
                        "JOINTS_0" : 10,
                        "WEIGHTS_0" : 11
                    },
                    "indices" : 12,
                    "material" : 0
                }
            ]
        },
        {
            "name" : "\uba54\uc26c.002",
            "primitives" : [
                {
                    "attributes" : {
                        "POSITION" : 13,
                        "NORMAL" : 14,
                        "TEXCOORD_0" : 15,
                        "JOINTS_0" : 16,
                        "WEIGHTS_0" : 17
                    },
                    "indices" : 18,
                    "material" : 0
                }
            ]
        },
        {
            "name" : "\uba54\uc26c.005",
            "primitives" : [
                {
                    "attributes" : {
                        "POSITION" : 19,
                        "NORMAL" : 20,
                        "TEXCOORD_0" : 21,
                        "JOINTS_0" : 22,
                        "WEIGHTS_0" : 23
                    },
                    "indices" : 24,
                    "material" : 0
                }
            ]
        }
    ],
    "textures" : [
        {
            "sampler" : 0,
            "source" : 0
        }
    ],
    "images" : [
        {
            "bufferView" : 6,
            "mimeType" : "image/png",
            "name" : "Full_Texture"
        }
    ],
    "skins" : [
        {
            "inverseBindMatrices" : 6,
            "joints" : [
                5,
                4,
                3,
                2,
                1,
                0
            ],
            "name" : "Kumdori_Maestro"
        }
    ],
    "accessors" : [
        {
            "bufferView" : 0,
            "componentType" : 5126,
            "count" : 1482,
            "max" : [
                0.5143847465515137,
                0.06046193838119507,
                0.36056187748908997
            ],
            "min" : [
                -0.5143847465515137,
                -0.7151073217391968,
                -0.3155417740345001
            ],
            "type" : "VEC3"
        },
        {
            "bufferView" : 1,
            "componentType" : 5126,
            "count" : 1482,
            "type" : "VEC3"
        },
        {
            "bufferView" : 2,
            "componentType" : 5126,
            "count" : 1482,
            "type" : "VEC2"
        },
        {
            "bufferView" : 3,
            "componentType" : 5121,
            "count" : 1482,
            "type" : "VEC4"
        },
        {
            "bufferView" : 4,
            "componentType" : 5126,
            "count" : 1482,
            "type" : "VEC4"
        },
        {
            "bufferView" : 5,
            "componentType" : 5123,
            "count" : 7164,
            "type" : "SCALAR"
        },
        {
            "bufferView" : 7,
            "componentType" : 5126,
            "count" : 6,
            "type" : "MAT4"
        },
        {
            "bufferView" : 8,
            "componentType" : 5126,
            "count" : 4588,
            "max" : [
                0.8803728222846985,
                2.1151790618896484,
                0.6305652260780334
            ],
            "min" : [
                -0.8803671598434448,
                0.052484750747680664,
                -0.625082790851593
            ],
            "type" : "VEC3"
        },
        {
            "bufferView" : 9,
            "componentType" : 5126,
            "count" : 4588,
            "type" : "VEC3"
        },
        {
            "bufferView" : 10,
            "componentType" : 5126,
            "count" : 4588,
            "type" : "VEC2"
        },
        {
            "bufferView" : 11,
            "componentType" : 5121,
            "count" : 4588,
            "type" : "VEC4"
        },
        {
            "bufferView" : 12,
            "componentType" : 5126,
            "count" : 4588,
            "type" : "VEC4"
        },
        {
            "bufferView" : 13,
            "componentType" : 5123,
            "count" : 6852,
            "type" : "SCALAR"
        },
        {
            "bufferView" : 14,
            "componentType" : 5126,
            "count" : 7504,
            "max" : [
                0.5244059562683105,
                0.06024700403213501,
                0.3369082808494568
            ],
            "min" : [
                -0.5244059562683105,
                -0.6210945844650269,
                -0.3217686414718628
            ],
            "type" : "VEC3"
        },
        {
            "bufferView" : 15,
            "componentType" : 5126,
            "count" : 7504,
            "type" : "VEC3"
        },
        {
            "bufferView" : 16,
            "componentType" : 5126,
            "count" : 7504,
            "type" : "VEC2"
        },
        {
            "bufferView" : 17,
            "componentType" : 5121,
            "count" : 7504,
            "type" : "VEC4"
        },
        {
            "bufferView" : 18,
            "componentType" : 5126,
            "count" : 7504,
            "type" : "VEC4"
        },
        {
            "bufferView" : 19,
            "componentType" : 5123,
            "count" : 11604,
            "type" : "SCALAR"
        },
        {
            "bufferView" : 20,
            "componentType" : 5126,
            "count" : 334,
            "max" : [
                0.3513178527355194,
                0.37744057178497314,
                0.6523281335830688
            ],
            "min" : [
                -0.35131338238716125,
                0.19836139678955078,
                0.5700803995132446
            ],
            "type" : "VEC3"
        },
        {
            "bufferView" : 21,
            "componentType" : 5126,
            "count" : 334,
            "type" : "VEC3"
        },
        {
            "bufferView" : 22,
            "componentType" : 5126,
            "count" : 334,
            "type" : "VEC2"
        },
        {
            "bufferView" : 23,
            "componentType" : 5121,
            "count" : 334,
            "type" : "VEC4"
        },
        {
            "bufferView" : 24,
            "componentType" : 5126,
            "count" : 334,
            "type" : "VEC4"
        },
        {
            "bufferView" : 25,
            "componentType" : 5123,
            "count" : 1584,
            "type" : "SCALAR"
        }
    ],
    "bufferViews" : [
        {
            "buffer" : 0,
            "byteLength" : 17784,
            "byteOffset" : 0
        },
        {
            "buffer" : 0,
            "byteLength" : 17784,
            "byteOffset" : 17784
        },
        {
            "buffer" : 0,
            "byteLength" : 11856,
            "byteOffset" : 35568
        },
        {
            "buffer" : 0,
            "byteLength" : 5928,
            "byteOffset" : 47424
        },
        {
            "buffer" : 0,
            "byteLength" : 23712,
            "byteOffset" : 53352
        },
        {
            "buffer" : 0,
            "byteLength" : 14328,
            "byteOffset" : 77064
        },
        {
            "buffer" : 0,
            "byteLength" : 177,
            "byteOffset" : 91392
        },
        {
            "buffer" : 0,
            "byteLength" : 384,
            "byteOffset" : 91572
        },
        {
            "buffer" : 0,
            "byteLength" : 55056,
            "byteOffset" : 91956
        },
        {
            "buffer" : 0,
            "byteLength" : 55056,
            "byteOffset" : 147012
        },
        {
            "buffer" : 0,
            "byteLength" : 36704,
            "byteOffset" : 202068
        },
        {
            "buffer" : 0,
            "byteLength" : 18352,
            "byteOffset" : 238772
        },
        {
            "buffer" : 0,
            "byteLength" : 73408,
            "byteOffset" : 257124
        },
        {
            "buffer" : 0,
            "byteLength" : 13704,
            "byteOffset" : 330532
        },
        {
            "buffer" : 0,
            "byteLength" : 90048,
            "byteOffset" : 344236
        },
        {
            "buffer" : 0,
            "byteLength" : 90048,
            "byteOffset" : 434284
        },
        {
            "buffer" : 0,
            "byteLength" : 60032,
            "byteOffset" : 524332
        },
        {
            "buffer" : 0,
            "byteLength" : 30016,
            "byteOffset" : 584364
        },
        {
            "buffer" : 0,
            "byteLength" : 120064,
            "byteOffset" : 614380
        },
        {
            "buffer" : 0,
            "byteLength" : 23208,
            "byteOffset" : 734444
        },
        {
            "buffer" : 0,
            "byteLength" : 4008,
            "byteOffset" : 757652
        },
        {
            "buffer" : 0,
            "byteLength" : 4008,
            "byteOffset" : 761660
        },
        {
            "buffer" : 0,
            "byteLength" : 2672,
            "byteOffset" : 765668
        },
        {
            "buffer" : 0,
            "byteLength" : 1336,
            "byteOffset" : 768340
        },
        {
            "buffer" : 0,
            "byteLength" : 5344,
            "byteOffset" : 769676
        },
        {
            "buffer" : 0,
            "byteLength" : 3168,
            "byteOffset" : 775020
        }
    ],
    "samplers" : [
        {
            "magFilter" : 9729,
            "minFilter" : 9987
        }
    ],
    "buffers" : [
        {
            "byteLength" : 778188,
            "uri" : "data:application/octet-stream;base64,"
        }
    ]
}
