{
    "asset" : {
        "generator" : "Khronos glTF Blender I/O v1.8.19",
        "version" : "2.0"
    },
    "scene" : 0,
    "scenes" : [
        {
            "name" : "Scene",
            "nodes" : [
                9
            ]
        }
    ],
    "nodes" : [
        {
            "name" : "Star_5",
            "rotation" : [
                4.508608147468871e-15,
                2.235175244891252e-08,
                -0.1726643443107605,
                0.9849807620048523
            ],
            "translation" : [
                1.1920928955078125e-07,
                0.11757081747055054,
                2.930988785010413e-14
            ]
        },
        {
            "children" : [
                0
            ],
            "name" : "Star_4",
            "rotation" : [
                8.940696005765858e-08,
                2.2351734685344127e-08,
                -0.18364690244197845,
                0.9829922914505005
            ],
            "translation" : [
                1.7881393432617188e-07,
                0.11757087707519531,
                2.220446049250313e-14
            ]
        },
        {
            "children" : [
                1
            ],
            "name" : "Star_3",
            "rotation" : [
                -7.072302016616254e-15,
                1.4901160305669237e-08,
                -0.1480104923248291,
                0.9889858961105347
            ],
            "translation" : [
                -3.7499102159097785e-21,
                0.11757063865661621,
                -2.6645352591003757e-15
            ]
        },
        {
            "children" : [
                2
            ],
            "name" : "Star_2",
            "rotation" : [
                6.399716351881924e-15,
                1.4901196720984444e-08,
                -0.1490064263343811,
                0.9888362288475037
            ],
            "scale" : [
                0.9999999403953552,
                1,
                1
            ],
            "translation" : [
                -4.239583367082698e-22,
                0.11757075786590576,
                -9.769962616701378e-15
            ]
        },
        {
            "children" : [
                3
            ],
            "name" : "Star_1",
            "rotation" : [
                -5.79929437805049e-10,
                1.3483176530826313e-07,
                -0.057697441428899765,
                0.9983341097831726
            ],
            "scale" : [
                0.9999999403953552,
                0.9999999403953552,
                1
            ],
            "translation" : [
                -1.3733228776402484e-08,
                1.0297925472259521,
                6.214865387187303e-15
            ]
        },
        {
            "children" : [
                4
            ],
            "name" : "Head",
            "rotation" : [
                6.339203650895797e-08,
                7.574776361707336e-09,
                5.088690720462098e-16,
                1
            ],
            "translation" : [
                -1.3234889800848443e-23,
                0.10458247363567352,
                2.005026608265366e-31
            ]
        },
        {
            "mesh" : 0,
            "name" : "Kumsuni_Body",
            "skin" : 0
        },
        {
            "mesh" : 1,
            "name" : "Kumsuni_Head",
            "skin" : 0
        },
        {
            "mesh" : 2,
            "name" : "Kumsuni_Maestro_Cloth",
            "skin" : 0
        },
        {
            "children" : [
                6,
                7,
                8,
                5
            ],
            "name" : "Kumsuni_Maestro"
        }
    ],
    "materials" : [
        {
            "doubleSided" : true,
            "name" : "Kumsuni",
            "pbrMetallicRoughness" : {
                "baseColorTexture" : {
                    "index" : 0
                },
                "metallicFactor" : 0
            }
        }
    ],
    "meshes" : [
        {
            "name" : "\uba54\uc26c.006",
            "primitives" : [
                {
                    "attributes" : {
                        "POSITION" : 0,
                        "NORMAL" : 1,
                        "TEXCOORD_0" : 2,
                        "JOINTS_0" : 3,
                        "WEIGHTS_0" : 4
                    },
                    "indices" : 5,
                    "material" : 0
                }
            ]
        },
        {
            "name" : "\uba54\uc26c.009",
            "primitives" : [
                {
                    "attributes" : {
                        "POSITION" : 7,
                        "NORMAL" : 8,
                        "TEXCOORD_0" : 9,
                        "COLOR_0" : 10,
                        "JOINTS_0" : 11,
                        "WEIGHTS_0" : 12
                    },
                    "indices" : 13,
                    "material" : 0
                }
            ]
        },
        {
            "name" : "\uba54\uc26c.008",
            "primitives" : [
                {
                    "attributes" : {
                        "POSITION" : 14,
                        "NORMAL" : 15,
                        "TEXCOORD_0" : 16,
                        "JOINTS_0" : 17,
                        "WEIGHTS_0" : 18
                    },
                    "indices" : 19,
                    "material" : 0
                }
            ]
        }
    ],
    "textures" : [
        {
            "sampler" : 0,
            "source" : 0
        }
    ],
    "images" : [
        {
            "bufferView" : 6,
            "mimeType" : "image/png",
            "name" : "Kurmsuni_Full_Texture"
        }
    ],
    "skins" : [
        {
            "inverseBindMatrices" : 6,
            "joints" : [
                5,
                4,
                3,
                2,
                1,
                0
            ],
            "name" : "Kumsuni_Maestro"
        }
    ],
    "accessors" : [
        {
            "bufferView" : 0,
            "componentType" : 5126,
            "count" : 1696,
            "max" : [
                0.4295392334461212,
                0.0070722103118896484,
                0.2748020589351654
            ],
            "min" : [
                -0.4295334815979004,
                -0.7125997543334961,
                -0.20911309123039246
            ],
            "type" : "VEC3"
        },
        {
            "bufferView" : 1,
            "componentType" : 5126,
            "count" : 1696,
            "type" : "VEC3"
        },
        {
            "bufferView" : 2,
            "componentType" : 5126,
            "count" : 1696,
            "type" : "VEC2"
        },
        {
            "bufferView" : 3,
            "componentType" : 5121,
            "count" : 1696,
            "type" : "VEC4"
        },
        {
            "bufferView" : 4,
            "componentType" : 5126,
            "count" : 1696,
            "type" : "VEC4"
        },
        {
            "bufferView" : 5,
            "componentType" : 5123,
            "count" : 6078,
            "type" : "SCALAR"
        },
        {
            "bufferView" : 7,
            "componentType" : 5126,
            "count" : 6,
            "type" : "MAT4"
        },
        {
            "bufferView" : 8,
            "componentType" : 5126,
            "count" : 5934,
            "max" : [
                0.8994399309158325,
                1.9507322311401367,
                0.6442070603370667
            ],
            "min" : [
                -0.8994341492652893,
                0.0045278072357177734,
                -0.6386358141899109
            ],
            "type" : "VEC3"
        },
        {
            "bufferView" : 9,
            "componentType" : 5126,
            "count" : 5934,
            "type" : "VEC3"
        },
        {
            "bufferView" : 10,
            "componentType" : 5126,
            "count" : 5934,
            "type" : "VEC2"
        },
        {
            "bufferView" : 11,
            "componentType" : 5123,
            "count" : 5934,
            "normalized" : true,
            "type" : "VEC4"
        },
        {
            "bufferView" : 12,
            "componentType" : 5121,
            "count" : 5934,
            "type" : "VEC4"
        },
        {
            "bufferView" : 13,
            "componentType" : 5126,
            "count" : 5934,
            "type" : "VEC4"
        },
        {
            "bufferView" : 14,
            "componentType" : 5123,
            "count" : 8304,
            "type" : "SCALAR"
        },
        {
            "bufferView" : 15,
            "componentType" : 5126,
            "count" : 7068,
            "max" : [
                0.44219067692756653,
                0.012036800384521484,
                0.2994252145290375
            ],
            "min" : [
                -0.44217970967292786,
                -0.518088698387146,
                -0.2410685122013092
            ],
            "type" : "VEC3"
        },
        {
            "bufferView" : 16,
            "componentType" : 5126,
            "count" : 7068,
            "type" : "VEC3"
        },
        {
            "bufferView" : 17,
            "componentType" : 5126,
            "count" : 7068,
            "type" : "VEC2"
        },
        {
            "bufferView" : 18,
            "componentType" : 5121,
            "count" : 7068,
            "type" : "VEC4"
        },
        {
            "bufferView" : 19,
            "componentType" : 5126,
            "count" : 7068,
            "type" : "VEC4"
        },
        {
            "bufferView" : 20,
            "componentType" : 5123,
            "count" : 9780,
            "type" : "SCALAR"
        }
    ],
    "bufferViews" : [
        {
            "buffer" : 0,
            "byteLength" : 20352,
            "byteOffset" : 0
        },
        {
            "buffer" : 0,
            "byteLength" : 20352,
            "byteOffset" : 20352
        },
        {
            "buffer" : 0,
            "byteLength" : 13568,
            "byteOffset" : 40704
        },
        {
            "buffer" : 0,
            "byteLength" : 6784,
            "byteOffset" : 54272
        },
        {
            "buffer" : 0,
            "byteLength" : 27136,
            "byteOffset" : 61056
        },
        {
            "buffer" : 0,
            "byteLength" : 12156,
            "byteOffset" : 88192
        },
        {
            "buffer" : 0,
            "byteLength" : 177,
            "byteOffset" : 100348
        },
        {
            "buffer" : 0,
            "byteLength" : 384,
            "byteOffset" : 100528
        },
        {
            "buffer" : 0,
            "byteLength" : 71208,
            "byteOffset" : 100912
        },
        {
            "buffer" : 0,
            "byteLength" : 71208,
            "byteOffset" : 172120
        },
        {
            "buffer" : 0,
            "byteLength" : 47472,
            "byteOffset" : 243328
        },
        {
            "buffer" : 0,
            "byteLength" : 47472,
            "byteOffset" : 290800
        },
        {
            "buffer" : 0,
            "byteLength" : 23736,
            "byteOffset" : 338272
        },
        {
            "buffer" : 0,
            "byteLength" : 94944,
            "byteOffset" : 362008
        },
        {
            "buffer" : 0,
            "byteLength" : 16608,
            "byteOffset" : 456952
        },
        {
            "buffer" : 0,
            "byteLength" : 84816,
            "byteOffset" : 473560
        },
        {
            "buffer" : 0,
            "byteLength" : 84816,
            "byteOffset" : 558376
        },
        {
            "buffer" : 0,
            "byteLength" : 56544,
            "byteOffset" : 643192
        },
        {
            "buffer" : 0,
            "byteLength" : 28272,
            "byteOffset" : 699736
        },
        {
            "buffer" : 0,
            "byteLength" : 113088,
            "byteOffset" : 728008
        },
        {
            "buffer" : 0,
            "byteLength" : 19560,
            "byteOffset" : 841096
        }
    ],
    "samplers" : [
        {
            "magFilter" : 9729,
            "minFilter" : 9987
        }
    ],
    "buffers" : [
        {
            "byteLength" : 860656,
            "uri" : "data:application/octet-stream;base64,"
        }
    ]
}
