{
    "asset" : {
        "copyright" : "CultureConnection",
        "generator" : "Khronos glTF Blender I/O v1.8.19",
        "version" : "2.0"
    },
    "scene" : 0,
    "scenes" : [
        {
            "name" : "Scene",
            "nodes" : [
                0
            ]
        }
    ],
    "nodes" : [
        {
            "mesh" : 0,
            "name" : "Dog"
        }
    ],
    "materials" : [
        {
            "doubleSided" : true,
            "name" : "Puppy",
            "pbrMetallicRoughness" : {
                "baseColorTexture" : {
                    "index" : 0
                },
                "metallicFactor" : 0
            }
        }
    ],
    "meshes" : [
        {
            "name" : "\ud050\ube0c.002",
            "primitives" : [
                {
                    "attributes" : {
                        "POSITION" : 0,
                        "NORMAL" : 1,
                        "TEXCOORD_0" : 2
                    },
                    "indices" : 3,
                    "material" : 0
                }
            ]
        }
    ],
    "textures" : [
        {
            "sampler" : 0,
            "source" : 0
        }
    ],
    "images" : [
        {
            "bufferView" : 4,
            "mimeType" : "image/png",
            "name" : "Puppy_Base_color"
        }
    ],
    "accessors" : [
        {
            "bufferView" : 0,
            "componentType" : 5126,
            "count" : 3054,
            "max" : [
                0.9867814183235168,
                0.2874191701412201,
                0.49985942244529724
            ],
            "min" : [
                -0.9867814183235168,
                -0.31128987669944763,
                -0.13961905241012573
            ],
            "type" : "VEC3"
        },
        {
            "bufferView" : 1,
            "componentType" : 5126,
            "count" : 3054,
            "type" : "VEC3"
        },
        {
            "bufferView" : 2,
            "componentType" : 5126,
            "count" : 3054,
            "type" : "VEC2"
        },
        {
            "bufferView" : 3,
            "componentType" : 5123,
            "count" : 14112,
            "type" : "SCALAR"
        }
    ],
    "bufferViews" : [
        {
            "buffer" : 0,
            "byteLength" : 36648,
            "byteOffset" : 0
        },
        {
            "buffer" : 0,
            "byteLength" : 36648,
            "byteOffset" : 36648
        },
        {
            "buffer" : 0,
            "byteLength" : 24432,
            "byteOffset" : 73296
        },
        {
            "buffer" : 0,
            "byteLength" : 28224,
            "byteOffset" : 97728
        },
        {
            "buffer" : 0,
            "byteLength" : 14043,
            "byteOffset" : 125952
        }
    ],
    "samplers" : [
        {
            "magFilter" : 9729,
            "minFilter" : 9987
        }
    ],
    "buffers" : [
        {
            "byteLength" : 139996,
            "uri" : "data:application/octet-stream;base64,"
        }
    ]
}
