{
	"asset":{
		"copyright":"assetfactory",
		"generator":"Khronos glTF Blender I/O v3.6.27",
		"version":"2.0"
	},
	"scene":0,
	"scenes":[
		{
			"name":"Scene",
			"nodes":[
				0
			]
		}
	],
	"nodes":[
		{
			"mesh":0,
			"name":"Sunglasses(3)"
		}
	],
	"materials":[
		{
			"alphaMode":"BLEND",
			"doubleSided":true,
			"name":"PinkGlass",
			"pbrMetallicRoughness":{
				"baseColorFactor":[
					0.800000011920929,
					0.23976300656795502,
					0.5419809818267822,
					0.8484607934951782
				],
				"metallicFactor":0.36992260813713074,
				"roughnessFactor":0
			}
		},
		{
			"doubleSided":true,
			"name":"Gold",
			"pbrMetallicRoughness":{
				"baseColorFactor":[
					0.800000011920929,
					0.5251709818840027,
					0.23029200732707977,
					1
				],
				"roughnessFactor":0.1054672971367836
			}
		},
		{
			"doubleSided":true,
			"name":"BrownPlastic",
			"pbrMetallicRoughness":{
				"baseColorFactor":[
					0.014668899588286877,
					0.006442680023610592,
					0.0028571300208568573,
					1
				],
				"metallicFactor":0,
				"roughnessFactor":0.9982261657714844
			}
		},
		{
			"alphaMode":"BLEND",
			"doubleSided":true,
			"name":"WhitePlastic",
			"pbrMetallicRoughness":{
				"baseColorFactor":[
					0.5972669124603271,
					0.5978448987007141,
					0.5345884561538696,
					0.5
				],
				"metallicFactor":0,
				"roughnessFactor":0.17888544499874115
			}
		}
	],
	"meshes":[
		{
			"name":"Cylinder.002_PinkGlass_0",
			"primitives":[
				{
					"attributes":{
						"POSITION":0,
						"NORMAL":1,
						"TEXCOORD_0":2
					},
					"indices":3,
					"material":0
				},
				{
					"attributes":{
						"POSITION":4,
						"NORMAL":5,
						"TEXCOORD_0":6
					},
					"indices":7,
					"material":1
				},
				{
					"attributes":{
						"POSITION":8,
						"NORMAL":9,
						"TEXCOORD_0":10
					},
					"indices":11,
					"material":2
				},
				{
					"attributes":{
						"POSITION":12,
						"NORMAL":13,
						"TEXCOORD_0":14
					},
					"indices":15,
					"material":3
				}
			]
		}
	],
	"accessors":[
		{
			"bufferView":0,
			"componentType":5126,
			"count":256,
			"max":[
				0.8269515633583069,
				0.21705804765224457,
				0.94222491979599
			],
			"min":[
				-0.8401015400886536,
				-0.4582778811454773,
				0.94222491979599
			],
			"type":"VEC3"
		},
		{
			"bufferView":1,
			"componentType":5126,
			"count":256,
			"type":"VEC3"
		},
		{
			"bufferView":2,
			"componentType":5126,
			"count":256,
			"type":"VEC2"
		},
		{
			"bufferView":3,
			"componentType":5123,
			"count":384,
			"type":"SCALAR"
		},
		{
			"bufferView":4,
			"componentType":5126,
			"count":5504,
			"max":[
				1.195399522781372,
				0.22883497178554535,
				1.0150197744369507
			],
			"min":[
				-1.2085497379302979,
				-0.4681738615036011,
				-0.4449438452720642
			],
			"type":"VEC3"
		},
		{
			"bufferView":5,
			"componentType":5126,
			"count":5504,
			"type":"VEC3"
		},
		{
			"bufferView":6,
			"componentType":5126,
			"count":5504,
			"type":"VEC2"
		},
		{
			"bufferView":7,
			"componentType":5123,
			"count":25440,
			"type":"SCALAR"
		},
		{
			"bufferView":8,
			"componentType":5126,
			"count":867,
			"max":[
				1.2357627153396606,
				-0.08783657848834991,
				-0.44050222635269165
			],
			"min":[
				-1.2489128112792969,
				-0.5041957497596741,
				-0.990710437297821
			],
			"type":"VEC3"
		},
		{
			"bufferView":9,
			"componentType":5126,
			"count":867,
			"type":"VEC3"
		},
		{
			"bufferView":10,
			"componentType":5126,
			"count":867,
			"type":"VEC2"
		},
		{
			"bufferView":11,
			"componentType":5123,
			"count":4032,
			"type":"SCALAR"
		},
		{
			"bufferView":12,
			"componentType":5126,
			"count":469,
			"max":[
				0.18277662992477417,
				-0.19030718505382538,
				0.9480993747711182
			],
			"min":[
				-0.19592636823654175,
				-0.358938068151474,
				0.8819290399551392
			],
			"type":"VEC3"
		},
		{
			"bufferView":13,
			"componentType":5126,
			"count":469,
			"type":"VEC3"
		},
		{
			"bufferView":14,
			"componentType":5126,
			"count":469,
			"type":"VEC2"
		},
		{
			"bufferView":15,
			"componentType":5123,
			"count":1824,
			"type":"SCALAR"
		}
	],
	"bufferViews":[
		{
			"buffer":0,
			"byteLength":3072,
			"byteOffset":0,
			"target":34962
		},
		{
			"buffer":0,
			"byteLength":3072,
			"byteOffset":3072,
			"target":34962
		},
		{
			"buffer":0,
			"byteLength":2048,
			"byteOffset":6144,
			"target":34962
		},
		{
			"buffer":0,
			"byteLength":768,
			"byteOffset":8192,
			"target":34963
		},
		{
			"buffer":0,
			"byteLength":66048,
			"byteOffset":8960,
			"target":34962
		},
		{
			"buffer":0,
			"byteLength":66048,
			"byteOffset":75008,
			"target":34962
		},
		{
			"buffer":0,
			"byteLength":44032,
			"byteOffset":141056,
			"target":34962
		},
		{
			"buffer":0,
			"byteLength":50880,
			"byteOffset":185088,
			"target":34963
		},
		{
			"buffer":0,
			"byteLength":10404,
			"byteOffset":235968,
			"target":34962
		},
		{
			"buffer":0,
			"byteLength":10404,
			"byteOffset":246372,
			"target":34962
		},
		{
			"buffer":0,
			"byteLength":6936,
			"byteOffset":256776,
			"target":34962
		},
		{
			"buffer":0,
			"byteLength":8064,
			"byteOffset":263712,
			"target":34963
		},
		{
			"buffer":0,
			"byteLength":5628,
			"byteOffset":271776,
			"target":34962
		},
		{
			"buffer":0,
			"byteLength":5628,
			"byteOffset":277404,
			"target":34962
		},
		{
			"buffer":0,
			"byteLength":3752,
			"byteOffset":283032,
			"target":34962
		},
		{
			"buffer":0,
			"byteLength":3648,
			"byteOffset":286784,
			"target":34963
		}
	],
	"buffers":[
		{
			"byteLength":290432,
			"uri":"data:application/octet-stream;base64,"
		}
	]
}
