{
	"asset":{
		"copyright":"Berk Gedik",
		"generator":"Khronos glTF Blender I/O v3.6.27",
		"version":"2.0"
	},
	"extensionsUsed":[
		"KHR_materials_specular"
	],
	"scene":0,
	"scenes":[
		{
			"name":"Scene",
			"nodes":[
				0
			]
		}
	],
	"nodes":[
		{
			"mesh":0,
			"name":"Sunglasses(2)"
		}
	],
	"materials":[
		{
			"alphaMode":"BLEND",
			"doubleSided":true,
			"extensions":{
				"KHR_materials_specular":{
					"specularColorFactor":[
						1.0,
						1.0,
						1.0
					]
				}
			},
			"name":"Tommy_01",
			"pbrMetallicRoughness":{
				"baseColorTexture":{
					"index":0
				},
				"metallicRoughnessTexture":{
					"index":1
				}
			}
		}
	],
	"meshes":[
		{
			"name":"Plane_Tommy_01_0",
			"primitives":[
				{
					"attributes":{
						"POSITION":0,
						"NORMAL":1,
						"TEXCOORD_0":2
					},
					"indices":3,
					"material":0
				}
			]
		}
	],
	"textures":[
		{
			"sampler":0,
			"source":0
		},
		{
			"sampler":0,
			"source":1
		}
	],
	"images":[
		{
			"bufferView":4,
			"mimeType":"image/png",
			"name":"Sunglasses(1)_Base"
		},
		{
			"bufferView":5,
			"mimeType":"image/png",
			"name":"Sunglasses(1)_Roughness"
		}
	],
	"accessors":[
		{
			"bufferView":0,
			"componentType":5126,
			"count":4230,
			"max":[
				0.7509658932685852,
				0.10326769948005676,
				0.9370003938674927
			],
			"min":[
				-0.7509658932685852,
				-0.4450437128543854,
				-0.9642987847328186
			],
			"type":"VEC3"
		},
		{
			"bufferView":1,
			"componentType":5126,
			"count":4230,
			"type":"VEC3"
		},
		{
			"bufferView":2,
			"componentType":5126,
			"count":4230,
			"type":"VEC2"
		},
		{
			"bufferView":3,
			"componentType":5123,
			"count":16248,
			"type":"SCALAR"
		}
	],
	"bufferViews":[
		{
			"buffer":0,
			"byteLength":50760,
			"byteOffset":0,
			"target":34962
		},
		{
			"buffer":0,
			"byteLength":50760,
			"byteOffset":50760,
			"target":34962
		},
		{
			"buffer":0,
			"byteLength":33840,
			"byteOffset":101520,
			"target":34962
		},
		{
			"buffer":0,
			"byteLength":32496,
			"byteOffset":135360,
			"target":34963
		},
		{
			"buffer":0,
			"byteLength":25406,
			"byteOffset":167856
		},
		{
			"buffer":0,
			"byteLength":98024,
			"byteOffset":193264
		}
	],
	"samplers":[
		{
			"magFilter":9729,
			"minFilter":9987
		}
	],
	"buffers":[
		{
			"byteLength":291288,
			"uri":"data:application/octet-stream;base64,"
		}
	]
}
