{
	"asset":{
		"copyright":"Berk Gedik",
		"generator":"Khronos glTF Blender I/O v3.6.27",
		"version":"2.0"
	},
	"extensionsUsed":[
		"KHR_materials_specular"
	],
	"scene":0,
	"scenes":[
		{
			"name":"Scene",
			"nodes":[
				0
			]
		}
	],
	"nodes":[
		{
			"mesh":0,
			"name":"Sunglasses(1)"
		}
	],
	"materials":[
		{
			"alphaMode":"BLEND",
			"doubleSided":true,
			"extensions":{
				"KHR_materials_specular":{
					"specularColorFactor":[
						1.0,
						1.0,
						1.0
					]
				}
			},
			"name":"Vogue_01",
			"pbrMetallicRoughness":{
				"baseColorTexture":{
					"index":0
				},
				"metallicRoughnessTexture":{
					"index":1
				}
			}
		}
	],
	"meshes":[
		{
			"name":"Cube_Vogue_01_0",
			"primitives":[
				{
					"attributes":{
						"POSITION":0,
						"NORMAL":1,
						"TEXCOORD_0":2
					},
					"indices":3,
					"material":0
				}
			]
		}
	],
	"textures":[
		{
			"sampler":0,
			"source":0
		},
		{
			"sampler":0,
			"source":1
		}
	],
	"images":[
		{
			"bufferView":4,
			"mimeType":"image/png",
			"name":"Sunglasses(2)_Base"
		},
		{
			"bufferView":5,
			"mimeType":"image/png",
			"name":"Sunglasses(2)_Roughness"
		}
	],
	"accessors":[
		{
			"bufferView":0,
			"componentType":5126,
			"count":7794,
			"max":[
				0.675632894039154,
				0.13851040601730347,
				0.8996658325195312
			],
			"min":[
				-0.687084972858429,
				-0.36008980870246887,
				-0.9401333928108215
			],
			"type":"VEC3"
		},
		{
			"bufferView":1,
			"componentType":5126,
			"count":7794,
			"type":"VEC3"
		},
		{
			"bufferView":2,
			"componentType":5126,
			"count":7794,
			"type":"VEC2"
		},
		{
			"bufferView":3,
			"componentType":5123,
			"count":27417,
			"type":"SCALAR"
		}
	],
	"bufferViews":[
		{
			"buffer":0,
			"byteLength":93528,
			"byteOffset":0,
			"target":34962
		},
		{
			"buffer":0,
			"byteLength":93528,
			"byteOffset":93528,
			"target":34962
		},
		{
			"buffer":0,
			"byteLength":62352,
			"byteOffset":187056,
			"target":34962
		},
		{
			"buffer":0,
			"byteLength":54834,
			"byteOffset":249408,
			"target":34963
		},
		{
			"buffer":0,
			"byteLength":93565,
			"byteOffset":304244
		},
		{
			"buffer":0,
			"byteLength":138449,
			"byteOffset":397812
		}
	],
	"samplers":[
		{
			"magFilter":9729,
			"minFilter":9987
		}
	],
	"buffers":[
		{
			"byteLength":536264,
			"uri":"data:application/octet-stream;base64,"
		}
	]
}
